<?xml version="1.0" encoding="utf-8"?>
<svg width="80px" height="70px" viewBox="0 0 80 70" version="1.1" xmlns:xlink="http://www.w3.org/1999/xlink" xmlns="http://www.w3.org/2000/svg">
  <defs>
    <path d="M80 0L80 0L80 70L0 70L0 0L80 0Z" id="path_1" />
    <clipPath id="clip_1">
      <use xlink:href="#path_1" clip-rule="evenodd" fill-rule="evenodd" />
    </clipPath>
  </defs>
  <g id="bun" clip-path="url(#clip_1)">
    <path d="M80 0L80 0L80 70L0 70L0 0L80 0Z" id="bun" fill="none" stroke="none" />
    <path d="M71.09 20.74C70.93 20.57 70.76 20.4 70.59 20.24C70.42 20.08 70.26 19.9 70.09 19.74C69.92 19.58 69.76 19.4 69.59 19.24C69.42 19.08 69.26 18.9 69.09 18.74C68.92 18.58 68.76 18.4 68.59 18.24C68.42 18.08 68.26 17.9 68.09 17.74C67.92 17.58 67.76 17.4 67.59 17.24C72.5502 22.1147 75.3917 28.7463 75.5 35.7C75.5 52.27 58.68 65.75 38 65.75C26.42 65.75 16.06 61.52 9.17 54.89L9.67 55.39L10.17 55.89L10.67 56.39L11.17 56.89L11.67 57.39L12.17 57.89L12.67 58.39C19.55 65.3 30.14 69.75 42 69.75C62.68 69.75 79.5 56.27 79.5 39.75C79.5 32.69 76.46 26 71.09 20.74L71.09 20.74Z" id="Shadow" fill="#000000" stroke="none" />
    <g id="Body" transform="translate(0.5 0.5)">
      <path d="M72.5 35.2C72.5 50.41 56.83 62.74 37.5 62.74C18.17 62.74 2.5 50.41 2.5 35.2C2.5 25.77 8.5 17.44 17.72 12.5C26.94 7.56 32.68 2.5 37.5 2.5C42.32 2.5 46.44 6.63 57.28 12.5C66.5 17.44 72.5 25.77 72.5 35.2L72.5 35.2Z" id="Background" fill="#FBF0DF" stroke="none" />
      <path d="M72.5 35.2C72.4951 33.2461 72.226 31.3018 71.7 29.42C68.97 62.72 28.35 64.32 12.38 54.36C19.559 59.9244 28.4181 62.8797 37.5 62.74C56.8 62.74 72.5 50.39 72.5 35.2L72.5 35.2Z" id="Bottom_Shadow" fill="#F6DECE" stroke="none" />
      <path d="M24.03 10.67C28.5 7.99 34.44 2.96 40.28 2.95C39.3816 2.6596 38.4441 2.50786 37.5 2.5C35.08 2.5 32.5 3.75 29.25 5.63C28.12 6.29 26.95 7.02 25.71 7.78C23.38 9.22 20.71 10.85 17.71 12.48C8.19 17.63 2.5 26.12 2.5 35.2C2.5 35.6 2.5 36 2.5 36.39C8.56 14.98 19.57 13.35 24.03 10.67L24.03 10.67Z" id="Light_Shine" fill="#FFFEFC" stroke="none" />
      <path d="M34.62 5.03C34.6483 9.80815 32.5926 14.3613 28.99 17.5C28.71 17.75 28.93 18.23 29.29 18.09C32.66 16.78 37.21 12.86 35.29 4.95004C35.21 4.5 34.62 4.62 34.62 5.03L34.62 5.03ZM36.89 5.03C39.3661 9.0701 39.9542 13.9901 38.5 18.5C38.38 18.85 38.81 19.15 39.05 18.86C41.24 16.06 43.15 10.5 37.43 4.5C37.14 4.24 36.69 4.64 36.89 4.99L36.89 5.03ZM39.65 4.86C43.5268 7.60467 46.0251 11.8937 46.5 16.62C46.479 16.7949 46.5989 16.9554 46.7726 16.9848C46.9462 17.0142 47.1123 16.902 47.15 16.73C48.07 13.24 47.55 7.29 39.98 4.2C39.58 4.04 39.32 4.58 39.65 4.82L39.65 4.86ZM21.19 15.26C25.7997 13.8829 29.6063 10.6106 31.66 6.26C31.84 5.9 32.41 6.04 32.32 6.44C30.59 14.44 24.8 16.11 21.2 15.89C20.82 15.9 20.83 15.37 21.19 15.26L21.19 15.26Z" id="Top" fill="#CCBEA7" fill-rule="evenodd" stroke="none" />
      <path d="M37.5 65.25C16.82 65.25 0 51.77 0 35.2C0 25.2 6.18 15.87 16.53 10.28C19.53 8.68 22.1 7.07 24.39 5.66C25.65 4.88 26.84 4.15 27.99 3.47C31.5 1.39 34.5 0 37.5 0C40.5 0 43.12 1.2 46.4 3.14C47.4 3.71 48.4 4.33 49.47 5.01C51.96 6.55 54.77 8.29 58.47 10.28C68.82 15.87 75 25.19 75 35.2C75 51.77 58.18 65.25 37.5 65.25L37.5 65.25ZM37.5 2.5C35.08 2.5 32.5 3.75 29.25 5.63C28.12 6.29 26.95 7.02 25.71 7.78C23.38 9.22 20.71 10.85 17.71 12.48C8.19 17.63 2.5 26.12 2.5 35.2C2.5 50.39 18.2 62.75 37.5 62.75C56.8 62.75 72.5 50.39 72.5 35.2C72.5 26.12 66.81 17.63 57.28 12.5C53.5 10.5 50.55 8.62 48.16 7.14C47.07 6.47 46.07 5.85 45.16 5.3C42.13 3.5 39.92 2.5 37.5 2.5L37.5 2.5Z" id="Outline" fill="#000000" fill-rule="evenodd" stroke="none" />
    </g>
    <g id="Mouth" transform="translate(30.508236 41.62931)">
      <path d="M14.5418 1.37069C14.0925 3.21061 13.0699 4.86007 11.6218 6.08069C10.5345 7.13464 9.12702 7.79617 7.62176 7.96069C6.07127 7.82224 4.61439 7.15905 3.49176 6.08069C2.05837 4.85429 1.05018 3.20547 0.611767 1.37069C0.582321 1.14995 0.656683 0.928001 0.813175 0.769554C0.969666 0.611107 1.19067 0.533993 1.41176 0.560692L13.7518 0.560692C13.9712 0.537346 14.1893 0.61594 14.3434 0.773937C14.4975 0.931934 14.5706 1.15188 14.5418 1.37069L14.5418 1.37069Z" id="Background-2" fill="#B71422" stroke="none" />
      <g id="Tongue" transform="translate(2.821766 2.2806892)">
        <path d="M0.669998 3.88C1.79034 4.95899 3.24196 5.62843 4.79 5.78C6.33451 5.62624 7.78227 4.95696 8.9 3.88C9.25753 3.54675 9.59166 3.18924 9.9 2.81C8.65491 1.39749 6.88192 0.561653 5 0.500004C2.97754 0.547901 1.10799 1.58737 0 3.28C0.23 3.49 0.429996 3.69 0.669998 3.88L0.669998 3.88Z" id="Background-3" fill="#FF6164" stroke="none" />
        <path d="M0.829998 3.09C1.83447 1.79163 3.37851 1.02514 5.02 1.01C6.51757 1.05417 7.94443 1.65702 9.02 2.7C9.25 2.45 9.47 2.19 9.68 1.93C8.40781 0.718418 6.72656 0.0294991 4.97 0C3.06923 0.0163918 1.27542 0.882114 0.079998 2.36C0.316441 2.61689 0.566818 2.86059 0.830002 3.09L0.829998 3.09Z" id="Outline-2" fill="#000000" stroke="none" />
      </g>
      <path d="M7.58176 8.56069C5.9154 8.41468 4.34726 7.7099 3.13176 6.56069C1.58382 5.25145 0.494263 3.48223 0.0217648 1.51069C-0.0468616 1.1552 0.0486813 0.787735 0.281765 0.510693C0.559479 0.175331 0.976555 -0.0129051 1.41176 0.00069046L13.7518 0.00069046C14.1861 -0.00845718 14.6013 0.178947 14.8818 0.510689C15.1126 0.788761 15.2046 1.15668 15.1318 1.51069L15.1318 1.51069C14.6593 3.48223 13.5697 5.25145 12.0218 6.56069C10.8089 7.70786 9.24461 8.41249 7.58176 8.56069L7.58176 8.56069ZM1.41176 1.16069C1.25176 1.16069 1.21176 1.23069 1.20177 1.25069C1.62447 2.96036 2.58068 4.49099 3.93177 5.62069C4.91973 6.59404 6.20422 7.20989 7.58176 7.37069C8.95575 7.21171 10.2388 6.60357 11.2318 5.64069C12.5786 4.50907 13.5311 2.97879 13.9518 1.27069C13.9073 1.2055 13.8301 1.17073 13.7518 1.18069L1.41176 1.16069Z" id="Outline-3" fill="#000000" fill-rule="evenodd" stroke="none" />
    </g>
    <g id="Face" transform="translate(17.1 27.779842)">
      <path d="M30.27 12.4002C30.27 10.5003 32.8891 8.96016 36.12 8.96016C39.3509 8.96016 41.97 10.5003 41.97 12.4002C41.97 14.3 39.3509 15.8402 36.12 15.8402C32.8891 15.8402 30.27 14.3 30.27 12.4002Z" id="Right_Blush" fill="#FEBBD0" fill-rule="evenodd" stroke="none" />
      <path d="M0 12.4002C0 10.5003 2.61913 8.96016 5.85 8.96016C9.08087 8.96016 11.7 10.5003 11.7 12.4002C11.7 14.3 9.08087 15.8402 5.85 15.8402C2.61913 15.8402 0 14.3 0 12.4002Z" id="Left_Bluch" fill="#FEBBD0" fill-rule="evenodd" stroke="none" />
      <path d="M8.6 11.0202C10.8295 11.0242 12.8417 9.6843 13.6977 7.62568C14.5537 5.56705 14.0848 3.19547 12.5097 1.61754C10.9346 0.0396194 8.5639 -0.433628 6.50373 0.418629C4.44356 1.27088 3.1 3.28066 3.1 5.51015C3.1 8.54935 5.56083 11.0146 8.60001 11.0202L8.6 11.0202ZM33.37 11.0202C35.6022 11.0364 37.6235 9.70421 38.489 7.6466C39.3545 5.58899 38.893 3.21251 37.3203 1.62836C35.7477 0.0442066 33.3746 -0.434584 31.3108 0.415863C29.2469 1.26631 27.9001 3.27794 27.9 5.51016C27.8944 8.5398 30.3401 11.0036 33.3699 11.0202L33.37 11.0202Z" id="Eyes" fill="#000000" fill-rule="evenodd" stroke="none" />
      <path d="M6.9 5.86016C7.73814 5.86421 8.496 5.36244 8.81955 4.58927C9.1431 3.81609 8.96847 2.92411 8.37725 2.33002C7.78603 1.73593 6.89491 1.55699 6.12017 1.87679C5.34544 2.19659 4.84001 2.95201 4.84 3.79016C4.84 4.92952 5.7607 5.85466 6.90002 5.86016L6.9 5.86016ZM31.67 5.86016C32.5081 5.8642 33.266 5.36244 33.5895 4.58926C33.9131 3.81609 33.7385 2.92411 33.1472 2.33002C32.556 1.73593 31.6649 1.55699 30.8902 1.87679C30.1154 2.19659 29.61 2.95201 29.61 3.79016C29.61 4.92199 30.5187 5.84388 31.6502 5.86016L31.67 5.86016Z" id="Iris" fill="#FFFFFF" fill-opacity="0" fill-rule="evenodd" stroke="none" />
    </g>
  </g>
</svg>